#N canvas 0 25 1366 694 10;
#X obj 237 234 *~;
#X obj 285 276 *~;
#X obj 342 149 osc~;
#X obj 342 171 *~ 0.5;
#X obj 342 193 +~ 0.5;
#X obj 414 -428 tgl 65 0 empty empty PLAY -28 32 0 10 -262144 -1 -1
0 1;
#X obj 197 147 mtof;
#X obj 342 215 pow~;
#X obj 303 196 pow~;
#X obj 430 148 + 1;
#X obj 219 197 osc~;
#X obj 744 256 *~;
#X obj 755 71 osc~;
#X obj 755 93 *~ 0.5;
#X obj 755 115 +~ 0.5;
#X obj 670 100 mtof;
#X obj 765 168 pow~;
#X obj 774 5 bang;
#X obj -297 148 *~;
#X obj -297 180 *~;
#X obj -187 55 osc~;
#X obj -187 77 *~ 0.5;
#X obj -187 99 +~ 0.5;
#X obj -337 61 mtof;
#X obj -187 121 pow~;
#X obj -282 92 pow~;
#X obj -121 28 + 1;
#X obj -337 91 osc~;
#X obj -241 -43 bang;
#X obj 305 33 bang;
#X obj 670 130 phasor~;
#X obj 281 124 + 2;
#X obj -260 61 + 2;
#X obj 518 207 *~;
#X obj 532 144 pow~;
#X obj 518 181 osc~ 110;
#X obj 283 566 dac~;
#X obj 262 504 +~;
#X obj 321 504 +~;
#X obj 281 102 random 8;
#X obj 430 126 random 8;
#X obj -260 39 random 8;
#X obj -121 6 random 8;
#X obj 744 282 -~ 0.5;
#X obj 197 120 + 50;
#X obj -336 12 random 5;
#X obj 197 98 random 9;
#X obj 833 68 + 4;
#X obj 341 124 * 0.25;
#X obj -187 29 * 0.25;
#X obj 414 -308 count 8;
#X obj 555 -51 sel 0 4;
#X obj 503 99 vline~;
#X msg 503 77 1 10 \, 0 110 10;
#X obj 328 -133 vline~;
#X obj -50 235 *~;
#X obj -2 277 *~;
#X obj 55 150 osc~;
#X obj 55 172 *~ 0.5;
#X obj 55 194 +~ 0.5;
#X obj -77 148 mtof;
#X obj 55 216 pow~;
#X obj 16 197 pow~;
#X obj 118 102 + 1;
#X obj -90 178 osc~;
#X obj 54 45 bang;
#X obj -6 125 + 2;
#X obj -6 103 random 8;
#X obj 118 80 random 8;
#X obj 54 125 * 0.25;
#X obj 519 229 *~ 0.2;
#X obj 998 315 *~;
#X obj 1008 127 osc~;
#X obj 1008 149 *~ 0.5;
#X obj 1008 171 +~ 0.5;
#X obj 922 193 mtof;
#X obj 1008 193 pow~;
#X obj 1028 242 pow~;
#X obj 1023 27 bang;
#X obj 922 223 phasor~;
#X obj 1063 126 random 8;
#X obj 1062 148 + 2;
#X obj 1125 148 + 4;
#X obj 262 540 *~ 3;
#X obj 321 540 *~ 3;
#X obj -336 34 + 61;
#X obj 1125 126 random 4;
#X obj 712 190 *~;
#X obj 1007 93 random 10;
#X obj 922 267 *~;
#X obj 960 368 *~ 0.015;
#X obj 833 47 random 8;
#X obj 755 49 random 20;
#X obj 671 50 random 128;
#X obj 922 144 random 128;
#X obj 773 319 *~ 0.015;
#X obj 671 72 + 60;
#X obj 922 166 + 60;
#X obj 403 -217 sel 0;
#X obj 403 -195 random 5;
#X obj 403 -240 count 64;
#X obj 403 -173 sel 0 1 2 3 4;
#X obj 54 103 random 20;
#X obj 341 102 random 20;
#X obj -187 7 random 20;
#X obj -90 115 + 2;
#X obj 552 113 sig~ 3;
#X msg 247 -198 1 10 \, 0 100 10;
#X msg 715 -245 0 \, 1 \, 2 \, 3 \, 4 \, 5;
#X obj 715 -277 bng 15 250 50 0 empty empty empty 17 7 0 10 -262144
-1 -1;
#X floatatom 493 -382 5 0 0 0 - - -, f 5;
#X obj 414 -357 t f f;
#X obj 414 -330 metro;
#X obj 670 -396 sel 1;
#X obj 493 -404 + 120;
#X obj 493 -426 random 20;
#X obj 840 -405 del 300000;
#X obj 251 311 *~ 0.055;
#X obj 320 309 *~ 0.055;
#X obj -36 312 *~ 0.07;
#X obj 33 311 *~ 0.03;
#X obj -312 266 *~ 0.03;
#X obj -252 266 *~ 0.07;
#X obj 716 319 *~ 0.01;
#X obj 1031 372 *~ 0.01;
#X text -160 -416 This is a little endless-jungle experiment.;
#X text 6 -357 There is just one same base envelope for all;
#X text 6 -338 -except the kick- and then random changes in the;
#X text 6 -319 curve pronunciation with pow \, pitches and AM;
#X text -142 -276 The result are very moving and complex rhytm patterns
;
#X text 285 -218 ENV;
#X text 477 -217 Random change every 64;
#X text 746 -279 Initial random \, reseted every 300 secs;
#X text 528 -382 speed;
#X text -209 -41 Random;
#X text -338 -24 pitch;
#X text -248 14 curve;
#X text -143 -26 AM;
#X text 520 52 KICK;
#X text -69 -237 (but the kick is fixed \, so it is 'danceable');
#X text 44 -64 TOMS;
#X text 851 -14 SAW HATS;
#X text 760 -149 github.com/gabochi/gede;
#X text -160 -394 3 dark 'toms' with osc \, 1 kick and 2 saw bright
'hihats';
#X text -58 -257 without end \, always smootly changing...;
#X connect 0 0 1 0;
#X connect 1 0 117 0;
#X connect 1 0 118 0;
#X connect 2 0 3 0;
#X connect 3 0 4 0;
#X connect 4 0 7 0;
#X connect 5 0 111 0;
#X connect 6 0 10 0;
#X connect 7 0 1 1;
#X connect 8 0 0 1;
#X connect 9 0 7 1;
#X connect 10 0 0 0;
#X connect 11 0 43 0;
#X connect 12 0 13 0;
#X connect 13 0 14 0;
#X connect 14 0 87 1;
#X connect 15 0 30 0;
#X connect 16 0 11 1;
#X connect 17 0 91 0;
#X connect 17 0 92 0;
#X connect 17 0 93 0;
#X connect 18 0 19 0;
#X connect 19 0 121 0;
#X connect 19 0 122 0;
#X connect 20 0 21 0;
#X connect 21 0 22 0;
#X connect 22 0 24 0;
#X connect 23 0 27 0;
#X connect 24 0 19 1;
#X connect 25 0 18 1;
#X connect 26 0 24 1;
#X connect 27 0 18 0;
#X connect 28 0 41 0;
#X connect 28 0 42 0;
#X connect 28 0 45 0;
#X connect 28 0 104 0;
#X connect 29 0 39 0;
#X connect 29 0 40 0;
#X connect 29 0 46 0;
#X connect 29 0 103 0;
#X connect 30 0 87 0;
#X connect 31 0 8 1;
#X connect 32 0 25 1;
#X connect 33 0 70 0;
#X connect 34 0 33 1;
#X connect 35 0 33 0;
#X connect 37 0 83 0;
#X connect 38 0 84 0;
#X connect 39 0 31 0;
#X connect 40 0 9 0;
#X connect 41 0 32 0;
#X connect 42 0 26 0;
#X connect 43 0 95 0;
#X connect 43 0 123 0;
#X connect 44 0 6 0;
#X connect 45 0 85 0;
#X connect 46 0 44 0;
#X connect 47 0 16 1;
#X connect 48 0 2 0;
#X connect 49 0 20 0;
#X connect 50 0 51 0;
#X connect 50 0 107 0;
#X connect 51 0 53 0;
#X connect 51 1 53 0;
#X connect 52 0 34 0;
#X connect 53 0 52 0;
#X connect 54 0 8 0;
#X connect 54 0 25 0;
#X connect 54 0 16 0;
#X connect 54 0 62 0;
#X connect 54 0 77 0;
#X connect 55 0 56 0;
#X connect 56 0 119 0;
#X connect 56 0 120 0;
#X connect 57 0 58 0;
#X connect 58 0 59 0;
#X connect 59 0 61 0;
#X connect 60 0 64 0;
#X connect 61 0 56 1;
#X connect 62 0 55 1;
#X connect 63 0 61 1;
#X connect 64 0 55 0;
#X connect 65 0 67 0;
#X connect 65 0 68 0;
#X connect 65 0 102 0;
#X connect 66 0 62 1;
#X connect 67 0 66 0;
#X connect 68 0 63 0;
#X connect 69 0 57 0;
#X connect 70 0 37 0;
#X connect 70 0 38 0;
#X connect 71 0 90 0;
#X connect 71 0 124 0;
#X connect 72 0 73 0;
#X connect 73 0 74 0;
#X connect 74 0 76 0;
#X connect 75 0 79 0;
#X connect 76 0 89 1;
#X connect 77 0 71 1;
#X connect 78 0 80 0;
#X connect 78 0 86 0;
#X connect 78 0 88 0;
#X connect 78 0 94 0;
#X connect 79 0 89 0;
#X connect 80 0 81 0;
#X connect 81 0 76 1;
#X connect 82 0 77 1;
#X connect 83 0 36 0;
#X connect 84 0 36 1;
#X connect 85 0 23 0;
#X connect 85 0 105 0;
#X connect 86 0 82 0;
#X connect 87 0 11 0;
#X connect 88 0 72 0;
#X connect 89 0 71 0;
#X connect 90 0 37 0;
#X connect 91 0 47 0;
#X connect 92 0 12 0;
#X connect 93 0 96 0;
#X connect 94 0 97 0;
#X connect 95 0 38 0;
#X connect 96 0 15 0;
#X connect 97 0 75 0;
#X connect 98 0 99 0;
#X connect 99 0 101 0;
#X connect 100 0 98 0;
#X connect 101 0 65 0;
#X connect 101 1 29 0;
#X connect 101 2 28 0;
#X connect 101 3 17 0;
#X connect 101 4 78 0;
#X connect 102 0 69 0;
#X connect 103 0 48 0;
#X connect 104 0 49 0;
#X connect 105 0 60 0;
#X connect 106 0 34 1;
#X connect 107 0 54 0;
#X connect 108 0 101 0;
#X connect 109 0 108 0;
#X connect 109 0 115 0;
#X connect 109 0 116 0;
#X connect 110 0 112 1;
#X connect 111 0 112 0;
#X connect 111 1 113 0;
#X connect 112 0 50 0;
#X connect 112 0 100 0;
#X connect 113 0 109 0;
#X connect 113 0 116 0;
#X connect 114 0 110 0;
#X connect 115 0 114 0;
#X connect 116 0 109 0;
#X connect 117 0 37 0;
#X connect 118 0 38 0;
#X connect 119 0 37 0;
#X connect 120 0 38 0;
#X connect 121 0 37 0;
#X connect 122 0 38 0;
#X connect 123 0 37 0;
#X connect 124 0 38 0;
