#N canvas 1 78 1351 689 10;
#X obj 689 467 *~ 1;
#X obj 677 506 dac~;
#X obj 498 171 *~ 8000;
#X obj 498 149 phasor~ 0.11;
#X obj 499 193 expr~ ($v1%25<sin($v1*0.0005)*10)*(0.13)*($v1%200<150)
\; sin($v1+sin($v1)*999)*($v1%1600<800&&$v1%100<20)*0.05 \; sin($v1*0.8)*($v1%400<50)*0.2
;
#X connect 0 0 1 0;
#X connect 0 0 1 1;
#X connect 2 0 4 0;
#X connect 3 0 2 0;
#X connect 4 0 0 0;
#X connect 4 1 0 0;
#X connect 4 2 0 0;
