#N canvas 566 251 450 300 10;
#X obj 14 34 *~ 64000;
#X obj 14 238 *~ 1;
#X obj 14 280 dac~;
#X obj 5 60 expr~ ($v1%50<($v1/50%50))*($v1%16000>8000)*($v1%1500<1300)*0.2
\; ($v1%25)*($v1%1000<250)*(sin($v1*0.005))*0.015 \; sin($v1*0.105)*($v1%8000%3000<300)*0.5
\; sin($v1*0.124+sin($v1*0.123)*$v1/40)*($v1%1000<500)*0.1 \; sin($v1+sin($v1)*sin($v1*0.00001)*999)*($v1%8000>4000&&$v1%3000<1000)*0.1
\; ($v1%25<($v1/250%25))*($v1%16000>8000)*($v1%1500<1300)*0.12, f
61;
#X obj 14 12 phasor~ 0.1;
#X connect 0 0 3 0;
#X connect 1 0 2 0;
#X connect 1 0 2 1;
#X connect 3 0 1 0;
#X connect 3 1 1 0;
#X connect 3 2 1 0;
#X connect 3 3 1 0;
#X connect 3 4 1 0;
#X connect 3 5 1 0;
#X connect 4 0 0 0;
