#N canvas 352 86 450 453 10;
#X obj 169 20 vsl 64 128 0 127 0 0 empty empty empty 0 -9 0 10 -262144
-1 -1 0 1;
#X obj 119 301 *~;
#X obj 104 331 *~;
#X obj 104 458 dac~;
#X obj 169 203 hsl 63 15 0 127 0 0 empty empty empty -2 -8 0 10 -262144
-1 -1 3076 1;
#X msg 389 230 63;
#X obj 305 86 loadbang;
#X obj 104 433 pan~;
#X obj 248 376 / 127;
#X obj 248 398 * 90;
#X obj 248 420 - 45;
#X obj 104 411 lop~;
#X obj 104 383 hip~;
#X msg 253 87 5;
#X msg 265 138 2000;
#X floatatom 168 160 6 0 0 1 hip - -, f 6;
#X floatatom 178 180 6 0 0 1 lop - -, f 6;
#X obj 37 214 r~ in-\$1;
#X obj 40 282 clip~ -1 1;
#X floatatom 199 132 5 0 1 0 clip - -, f 5;
#X obj 101 115 * -1;
#X msg 290 23 1;
#X obj 104 353 clip~ -1 1;
#X obj 119 279 / 96;
#X connect 0 0 23 0;
#X connect 1 0 2 1;
#X connect 2 0 22 0;
#X connect 4 0 8 0;
#X connect 5 0 4 0;
#X connect 6 0 5 0;
#X connect 6 0 13 0;
#X connect 6 0 14 0;
#X connect 6 0 21 0;
#X connect 7 0 3 0;
#X connect 7 1 3 1;
#X connect 8 0 9 0;
#X connect 9 0 10 0;
#X connect 10 0 7 1;
#X connect 11 0 7 0;
#X connect 12 0 11 0;
#X connect 13 0 15 0;
#X connect 14 0 16 0;
#X connect 15 0 12 1;
#X connect 16 0 11 1;
#X connect 17 0 18 0;
#X connect 18 0 2 0;
#X connect 19 0 20 0;
#X connect 19 0 18 2;
#X connect 20 0 18 1;
#X connect 21 0 19 0;
#X connect 22 0 12 0;
#X connect 23 0 1 0;
#X connect 23 0 1 1;
#X coords 0 -1 1 1 75 222 1 164 2;
