#N canvas 581 128 572 457 10;
#X obj 156 53 r~ ramp;
#X obj 274 210 tabread4~ env;
#X obj 274 188 +~ 1;
#X obj 157 322 *~;
#X obj 158 393 s~ in-\$1;
#X obj 33 140 expr~ \$2;
#X obj 274 232 pow~ \$4;
#X obj 274 144 expr~ $v1%(44100/$v2)/(44100/$v2);
#X obj 349 63 sig~ \$3;
#X obj 274 166 *~ 44110;
#X connect 0 0 5 0;
#X connect 0 0 7 0;
#X connect 1 0 6 0;
#X connect 2 0 1 0;
#X connect 3 0 4 0;
#X connect 5 0 3 0;
#X connect 6 0 3 1;
#X connect 7 0 9 0;
#X connect 8 0 7 1;
#X connect 9 0 2 0;
