#N canvas 0 25 1366 694 10;
#X obj 1012 69 phasor~ 0.1;
#X obj 558 488 dac~;
#X msg 1247 72 5510;
#X obj 1247 94 value t;
#X obj 555 437 *~;
#X obj 1010 114 *~ 440800;
#X obj 585 437 *~;
#X obj 636 530 dac~;
#X obj 633 479 *~;
#X obj 663 479 *~;
#X obj 708 588 dac~;
#X obj 705 537 *~;
#X obj 735 537 *~;
#X obj 708 473 expr~ if($v1%5510<40 \, pow($v1%40/40 \, 2) \, pow(1-($v1%5510/5510)
\, 2)), f 78;
#X obj 636 415 expr~ if($v1%5510<40 \, pow($v1%40/40 \, 2) \, pow(1-($v1%5510/5510)
\, 3)), f 78;
#X obj 558 373 expr~ if($v1%5510<40 \, pow($v1%40/40 \, 2) \, pow(1-($v1%5510/5510)
\, 10)), f 78;
#X obj 523 604 writesf~ 2;
#X msg 444 493 start;
#X msg 473 513 stop;
#X msg 385 456 open lomejor.wav;
#X obj 1009 161 expr~ ($v1%200/200)*(sin($v1*10600)*0.5+0.5)*0.1 \;
($v1%150>50)*(sin($v1*1111)*0.5+0.5)*(sin($v1/5000))*0.045 \; ($v1%100>60)*(sin($v1*680)*0.5+0.5)*(sin($v1/5050))*0.045
\; ($v1%800>300)*($v1%(t*5)>t)*0.07*0 \; (sin($v1/100))*($v1%(t*4)<t)*0.1*0
\; sin($v1+sin($v1)*111)*($v1%(t*7)>t*3)*0.014*0 \;, f 61;
#X connect 0 0 5 0;
#X connect 2 0 3 0;
#X connect 4 0 1 0;
#X connect 4 0 16 0;
#X connect 5 0 13 0;
#X connect 5 0 14 0;
#X connect 5 0 15 0;
#X connect 5 0 20 0;
#X connect 6 0 1 1;
#X connect 6 0 16 1;
#X connect 8 0 7 0;
#X connect 8 0 16 0;
#X connect 9 0 7 1;
#X connect 9 0 16 1;
#X connect 11 0 10 0;
#X connect 11 0 16 0;
#X connect 12 0 10 1;
#X connect 12 0 16 1;
#X connect 13 0 11 0;
#X connect 13 0 12 0;
#X connect 14 0 8 0;
#X connect 14 0 9 0;
#X connect 15 0 4 0;
#X connect 15 0 6 0;
#X connect 17 0 16 0;
#X connect 18 0 16 0;
#X connect 19 0 16 0;
#X connect 20 0 4 1;
#X connect 20 0 6 1;
#X connect 20 1 9 1;
#X connect 20 2 8 1;
#X connect 20 3 8 1;
#X connect 20 3 9 1;
#X connect 20 4 11 1;
#X connect 20 4 12 1;
#X connect 20 5 11 1;
#X connect 20 5 12 1;
