#N canvas 0 25 1366 694 10;
#X text 574 171 Gate;
#X text 849 126 AM;
#X text 861 -15 Ring;
#X text 429 365 FM;
#X text 174 292 PWM;
#X obj 23 164 expr~ ($v1%200/200);
#X obj 409 -85 phasor~ 0.1;
#X obj 409 -63 *~ 440800;
#X obj 890 473 dac~;
#X obj 901 445 *~ 0.01;
#X obj 16 61 expr~ sin($v1/20);
#X msg 497 -85 5510;
#X obj 497 -63 value t;
#X text 935 322 Envelope;
#X obj -72 8 expr~ ($v1%200>100);
#X obj 156 315 expr~ $v1%200>$v1/100%50;
#X text 71 142 SAW;
#X text -20 -30 SQUARE;
#X text 59 17 SINE;
#X obj 491 193 expr~ $v1%(t*2)<(t*1);
#X obj 477 223 *~;
#X obj 786 125 *~;
#X obj 800 101 expr~ sin($v1/4408)*0.5+0.5;
#X obj 846 5 expr~ sin($v1*999)*0.5+0.5;
#X obj 832 30 *~;
#X obj 901 414 *~;
#X obj 334 388 expr~ sin($v1/100+sin($v1/100)*(sin($v1/9999)*25));
#X obj 916 342 expr~ if($v1%t<10 \, pow($v1%10/10 \, 2) \, pow(1-($v1%t/t)
\, 4)), f 63;
#X connect 6 0 7 0;
#X connect 7 0 5 0;
#X connect 7 0 22 0;
#X connect 7 0 19 0;
#X connect 7 0 14 0;
#X connect 7 0 23 0;
#X connect 7 0 15 0;
#X connect 7 0 10 0;
#X connect 7 0 26 0;
#X connect 7 0 27 0;
#X connect 9 0 8 0;
#X connect 9 0 8 1;
#X connect 11 0 12 0;
#X connect 19 0 20 1;
#X connect 22 0 21 1;
#X connect 23 0 24 1;
#X connect 25 0 9 0;
#X connect 27 0 25 1;
