#N canvas 0 25 1366 694 10;
#X obj 571 563 clip~ -1 1;
#X obj 619 616 dac~;
#X obj 672 565 clip~ -1 1;
#X obj -145 107 expr~ $v1%(5510*7)<(5510*5);
#X obj -178 141 *~;
#X obj -179 196 *~;
#X obj -180 289 *~;
#X obj -144 218 expr~ sin($v1/1200)*0.5+0.5;
#X obj 218 515 *~;
#X obj 241 476 expr~ if($v1%5510<10 \, pow($v1%10/10 \, 2) \, pow(1-($v1%5510/5510)
\, 4));
#X obj 362 79 *~;
#X obj 424 52 expr~ $v1%(5510*5)<(5510*4);
#X obj 585 517 *~;
#X obj 842 139 expr~ ($v1%150>$v1/150%50)*0.15;
#X obj 626 231 *~;
#X obj 871 510 *~;
#X obj 248 515 *~;
#X obj 615 517 *~;
#X obj 901 510 *~;
#X obj -149 287 *~;
#X obj -144 248 expr~ sin($v1/2800)*0.5+0.5;
#X obj 347 180 *~;
#X obj 381 180 *~;
#X obj 684 250 *~;
#X obj 65 335 *~;
#X obj 148 281 expr~ $v1%(5510*9)<(5510*4);
#X obj 101 336 *~;
#X obj 148 310 expr~ $v1%(5510*10)>(5510*8);
#X obj 607 476 expr~ if($v1%5510<10 \, pow($v1%10/10 \, 2) \, pow(1-($v1%5510/5510)
\, 2));
#X obj 890 472 expr~ if($v1%5510<10 \, pow($v1%10/10 \, 2) \, pow(1-($v1%5510/5510)
\, 0.4));
#X obj 658 334 *~;
#X obj 688 334 *~;
#X obj 742 265 expr~ sin($v1/3333)*0.5+0.5;
#X obj 571 589 *~;
#X obj 672 589 *~;
#X obj 444 571 sig~ 0.25;
#X obj 424 79 expr~ sin($v1/3000)+0.5;
#X obj 424 109 expr~ sin($v1/2500)+0.5;
#X obj 841 116 expr~ ($v1%200>(100-$v1/1000%30))*0.1;
#X obj 127 -57 phasor~ 0.01;
#X obj 127 -32 *~ 4.408e+06;
#X obj 147 254 expr~ sin($v1/128+sin($v1/64)*(sin($v1/1800)*99))*0.15
;
#X obj 846 166 expr~ sin($v1/1900)*0.5+0.5;
#X obj 850 192 expr~ sin($v1/1750)*0.5+0.5;
#X obj -145 77 expr~ ($v1%300/300)*0.5;
#X obj 424 29 expr~ sin($v1/64+sin($v1/64)*(sin($v1/5510)*10))*0.25
;
#X obj 424 8 expr~ sin($v1/64+sin($v1/128)*(sin($v1/5510)*10))*0.1
;
#X text 18 20 Separate expressions but still one input signal only
;
#X text 424 -43 FM bass;
#X text 146 193 FM perc;
#X text 359 361 Kick;
#X text 848 82 PWM chord;
#X text 623 412 Envelopes;
#X text -146 15 Glitch perc;
#X obj 127 -10 s~ oneinput;
#X obj -145 44 r~ oneinput;
#X obj 328 382 r~ oneinput;
#X obj 328 406 expr~ ($v1%(5510*4)<150)*0.2;
#X text 27 107 gate;
#X text 2 77 saw wave;
#X obj -145 165 expr~ sin($v1%220000*1020)*0.5+0.5;
#X obj 606 453 r~ oneinput;
#X text 68 165 AM glitch;
#X obj 424 -19 r~ oneinput;
#X obj 147 215 r~ oneinput;
#X text 749 8 bass-1;
#X text 749 28 bass-2;
#X text 31 231 stereo AM;
#X text 321 293 stereo gates;
#X text 593 52 gate;
#X text 575 91 stereo AM;
#X obj 733 86 r~ oneinput;
#X text 1071 116 square 1;
#X text 1071 136 square 2;
#X text 1024 178 stereo AM-1;
#X text 913 264 AM-2;
#X connect 0 0 33 0;
#X connect 2 0 34 0;
#X connect 3 0 4 1;
#X connect 4 0 5 0;
#X connect 5 0 6 0;
#X connect 5 0 19 0;
#X connect 6 0 8 0;
#X connect 7 0 6 1;
#X connect 8 0 0 0;
#X connect 9 0 8 1;
#X connect 9 0 16 0;
#X connect 10 0 22 0;
#X connect 10 0 21 0;
#X connect 11 0 10 1;
#X connect 12 0 0 0;
#X connect 13 0 14 0;
#X connect 13 0 23 0;
#X connect 14 0 30 0;
#X connect 15 0 0 0;
#X connect 16 0 2 0;
#X connect 17 0 2 0;
#X connect 18 0 2 0;
#X connect 19 0 17 1;
#X connect 20 0 19 1;
#X connect 21 0 12 0;
#X connect 22 0 17 1;
#X connect 23 0 31 0;
#X connect 24 0 8 0;
#X connect 25 0 24 1;
#X connect 26 0 16 1;
#X connect 27 0 26 1;
#X connect 28 0 12 1;
#X connect 28 0 17 0;
#X connect 29 0 15 1;
#X connect 29 0 18 0;
#X connect 30 0 15 0;
#X connect 31 0 18 1;
#X connect 32 0 30 1;
#X connect 32 0 31 1;
#X connect 33 0 1 0;
#X connect 34 0 1 1;
#X connect 35 0 33 1;
#X connect 35 0 34 1;
#X connect 36 0 21 1;
#X connect 37 0 22 1;
#X connect 38 0 14 0;
#X connect 38 0 23 0;
#X connect 39 0 40 0;
#X connect 40 0 54 0;
#X connect 41 0 24 0;
#X connect 41 0 26 0;
#X connect 42 0 14 1;
#X connect 43 0 23 1;
#X connect 44 0 4 0;
#X connect 45 0 10 0;
#X connect 46 0 10 0;
#X connect 55 0 44 0;
#X connect 55 0 20 0;
#X connect 55 0 7 0;
#X connect 55 0 3 0;
#X connect 55 0 60 0;
#X connect 56 0 57 0;
#X connect 57 0 1 0;
#X connect 57 0 1 1;
#X connect 60 0 5 1;
#X connect 61 0 28 0;
#X connect 61 0 9 0;
#X connect 61 0 29 0;
#X connect 63 0 46 0;
#X connect 63 0 45 0;
#X connect 63 0 37 0;
#X connect 63 0 36 0;
#X connect 63 0 11 0;
#X connect 64 0 41 0;
#X connect 64 0 27 0;
#X connect 64 0 25 0;
#X connect 71 0 38 0;
#X connect 71 0 43 0;
#X connect 71 0 42 0;
#X connect 71 0 32 0;
#X connect 71 0 13 0;
