#N canvas 351 129 597 395 10;
#X obj 226 256 dac~;
#X obj 55 -29 *~ 4.408e+06;
#X obj 55 -52 phasor~ 0.01;
#X obj 53 34 expr~ ($v1%(5510*4)<250)*0.3 \; (sin($v1*2048))*($v1%5510<4000)*(sin($v1/800)
* 0.5+0.5)*($v1%5510<1500)*0.1 \; (sin($v1*1024))*($v1%5510<4000)*(sin($v1/1600)
* 0.5+0.5)*($v1%5510<1500)*0.1 \; (sin($v1/(8*$v1/10%10)))*0.1*(sin($v1/25000)*0.5+0.5)*($v1%(5510*2)<5000)
\; (sin($v1/(8*$v1/10%10)))*0.1*(sin($v1/12000)*0.5+0.5)*($v1%(5510*2)<5000)
\; (sin($v1/64+sin($v1/512) * (sin($v1/3000) * sin($v1/10000) * 1999)))
* ($v1%5510<700) * (sin($v1/6000) * 0.5+0.5)*0.2 \; (sin($v1/128+sin($v1/512)
* (sin($v1/3000) * sin($v1/10000) * 1999))) * ($v1%5510<700)* (sin($v1/4000)
* 0.5+0.5)*0.2, f 80;
#X connect 1 0 3 0;
#X connect 2 0 1 0;
#X connect 3 0 0 0;
#X connect 3 0 0 1;
#X connect 3 1 0 0;
#X connect 3 2 0 1;
#X connect 3 3 0 0;
#X connect 3 4 0 1;
#X connect 3 5 0 0;
#X connect 3 6 0 1;
