#N canvas 1 78 1351 689 10;
#X obj 169 23 vsl 64 128 0 127 0 0 empty empty empty 0 -9 0 10 -262144
-1 -1 9000 1;
#X obj 119 301 *~;
#X obj 104 331 *~;
#X obj 87 521 dac~;
#X obj 169 205 hsl 63 15 0 127 0 0 empty empty empty -2 -8 0 10 -262144
-1 -1 3076 1;
#X msg 389 230 63;
#X obj 305 86 loadbang;
#X obj 266 298 / 127;
#X obj 104 411 lop~;
#X obj 104 383 hip~;
#X msg 253 87 5;
#X floatatom 169 172 6 0 0 1 hip - -, f 6;
#X floatatom 169 188 6 0 0 1 lop - -, f 6;
#X obj 37 214 r~ in-\$1;
#X obj 40 282 clip~ -1 1;
#X floatatom 169 156 5 0 1 1 clip - -, f 5;
#X obj 101 115 * -1;
#X msg 290 23 1;
#X obj 104 353 clip~ -1 1;
#X obj 119 279 / 96;
#X obj 266 320 expr~ 1 - $v1;
#X obj 87 482 *~;
#X obj 117 482 *~;
#X msg 264 138 9999;
#X obj 218 4 tgl 15 0 empty empty empty 17 7 0 10 -262144 -1 -1 0 1
;
#X obj 104 433 *~;
#X connect 0 0 19 0;
#X connect 1 0 2 1;
#X connect 2 0 18 0;
#X connect 4 0 7 0;
#X connect 5 0 4 0;
#X connect 6 0 5 0;
#X connect 6 0 10 0;
#X connect 6 0 23 0;
#X connect 6 0 17 0;
#X connect 7 0 20 0;
#X connect 7 0 22 1;
#X connect 8 0 25 0;
#X connect 9 0 8 0;
#X connect 10 0 11 0;
#X connect 11 0 9 1;
#X connect 12 0 8 1;
#X connect 13 0 14 0;
#X connect 14 0 2 0;
#X connect 15 0 16 0;
#X connect 15 0 14 2;
#X connect 16 0 14 1;
#X connect 17 0 15 0;
#X connect 17 0 24 0;
#X connect 18 0 9 0;
#X connect 19 0 1 0;
#X connect 19 0 1 1;
#X connect 20 0 21 1;
#X connect 21 0 3 0;
#X connect 22 0 3 1;
#X connect 23 0 12 0;
#X connect 24 0 25 1;
#X connect 25 0 21 0;
#X connect 25 0 22 0;
#X coords 0 -1 1 1 74 222 1 164 2;
