#N canvas 475 41 572 457 10;
#X obj 187 -30 r~ ramp;
#X obj 274 210 tabread4~ env;
#X obj 274 188 +~ 1;
#X obj 157 322 *~;
#X obj 274 232 pow~ \$4;
#X obj 274 144 expr~ $v1%(44100/$v2)/(44100/$v2);
#X obj 468 97 expr~ \$3;
#X obj 274 166 *~ 44100;
#X obj 157 388 s~ in-\$1;
#X obj 126 117 samphold~;
#X obj 33 140 expr~ \$2+($v2*0);
#X obj 38 -1 noise~;
#X obj 38 21 *~ 0.5;
#X obj 38 43 +~ 0.5;
#X connect 0 0 5 0;
#X connect 0 0 6 0;
#X connect 0 0 10 0;
#X connect 1 0 4 0;
#X connect 2 0 1 0;
#X connect 3 0 8 0;
#X connect 4 0 3 1;
#X connect 5 0 7 0;
#X connect 5 0 9 1;
#X connect 6 0 5 1;
#X connect 7 0 2 0;
#X connect 9 0 10 1;
#X connect 10 0 3 0;
#X connect 11 0 12 0;
#X connect 12 0 13 0;
#X connect 13 0 9 0;
