#N canvas 1 78 1351 689 10;
#N canvas 527 272 488 301 ins 0;
#X obj 0 0 in 1 sin(($v1/2)/(20-($v1/(t/8)%9*5))+sin(($v1/2)/30)*($v2*6))*sin($v1/(t/2.5))
4+($v1/(t*0.75)%2*8) 2;
#X obj 0 0 in 2 sin($v1/60) 2 15;
#X obj 0 0 in 3 sin($v1*sin($v1)*9) 1 16;
#X obj 0 0 in 4 sin($v1%t*9999)*($v2<0.75) 8*($v1%(t*2.5)<t*0.75)+8
1;
#X obj 0 0 in 5 sin($v1/(16-($v1/(t/8)%16*5))+sin($v1/15)*sin($v1/(t/3))*10)*sin($v1/(t/2.75))
3+($v1/(t*1.5)%2)*8 5;
#X obj 0 0 in 6 $v1%(int($v2*8+4)*8)/(int($v2*8+4)*8)*(sin($v1/(t/12)))
0.25 1;
#X obj 0 0 in 7 sin($v1%16*16) 10 5;
#X obj 0 0 in end 0 0 0;
#X restore 456 374 pd ins;
#X obj 494 566 qlist;
#X obj 286 98 bng 15 250 50 0 empty empty read 17 7 0 10 -262144 -1
-1;
#X msg 363 532 \; pd-ins clear;
#X obj 189 445 list;
#X obj 798 98 bng 15 250 50 0 empty empty open 17 7 0 10 -262144 -1
-1;
#X obj 540 399 openpanel;
#X msg 511 530 read /home/gabo/Parches/rampcoding/rampcode-file/file.txt
;
#X msg 540 421 set read \$1;
#X obj 418 451 t b b b;
#X msg 189 466 \; pd-ins obj 0 0 in \$1 \$2 \$3 \$4;
#X obj 205 116 ch 1;
#X obj 525 116 ch 5;
#X obj 365 116 ch 3;
#X obj 285 116 ch 2;
#X obj 445 116 ch 4;
#X obj 605 116 ch 6;
#X obj 685 116 ch 7;
#X obj 765 116 ch 8;
#X obj 189 424 r code;
#X connect 2 0 9 0;
#X connect 4 0 10 0;
#X connect 5 0 6 0;
#X connect 6 0 8 0;
#X connect 7 0 1 0;
#X connect 8 0 7 0;
#X connect 9 0 1 0;
#X connect 9 1 3 0;
#X connect 9 2 7 0;
#X connect 19 0 4 0;
#X coords 0 -1 1 1 645 249 1 200 95;
